<svg width="132" height="188" viewBox="0 0 132 188" fill="none" xmlns="http://www.w3.org/2000/svg">
<path d="M69.342 124.647L69.008 125.463L69.231 126.943L69.99 130.256L71.304 134.625L72.396 137.235L73.858 140.567L74.895 142.529L76.487 145.417L78.393 148.636L79.893 150.711L81.151 152.395L81.207 153.321L81.041 154.08L80.338 154.357L78.227 154.468L74.525 154.247L71.471 153.857L68.787 153.376L65.528 152.451L63.881 151.729L62.789 151.248L61.548 151.025L60.123 151.081L59.365 151.414H58.328L55.866 151.025L54.459 150.544L52.923 150.433L50.479 150.379L48.628 150.211H46.925L45.241 150.322L44.093 150.802L43.278 151.025L43 151.414L43.056 152.174L43.833 153.431L45.296 155.45L46.166 155.819L47.536 156.801L49.109 157.672L50.812 158.226L53.256 158.282L55.44 158.059L57.291 157.635L58.865 157.135L59.531 157.468L59.846 158.115L60.401 158.282L61.752 158.226L63.455 158.338L64.326 158.615L65.362 158.338L68.731 158.761L71.026 159.095L74.784 159.911L77.523 160.724L80.227 161.651L82.612 162.743L83.539 163.409L86.002 163.52L87.315 163.187L88.018 161.761L88.776 160.022L88.558 158.615L87.632 156.856L86.392 154.301L85.408 151.636L84.686 148.636L84.373 146.064V143.565L84.632 140.622L84.966 139.14L84.576 137.883L83.763 137.235L82.134 136.032L80.983 135.217L80.765 133.643L80.227 131.959L79.207 130.311L78.116 128.905L76.747 127.592L75.006 126.276L73.044 124.813L72.007 124.314L70.971 124L70.101 124.147L69.342 124.647V124.647Z" fill="#F2F2F2" stroke="#E5E5E5" stroke-width="0.216" stroke-miterlimit="2.613"/>
<path d="M50.269 5.628L50.251 6.35L49.492 6.517L48.511 6.388L47.03 6.702L45.92 7.054L45.031 7.11L44.753 7.499L45.068 8.036L45.735 8.184L46.364 7.999L47.086 7.684L47.827 7.647L49.4 7.721L50.603 8.091L52.028 8.443L54.12 9.387L54.306 9.832L54.084 10.183L53.103 10.535L52.511 10.813L51.456 11.516L49.846 12.368L47.884 13.757L45.644 14.775L43.867 15.942L42.257 16.646L40.739 17.016L39.406 17.053L37.573 17.09L36.869 17.275L36.462 18.127L36.147 19.053L35.795 19.682L34.906 21.015L34.054 22.495L33.48 23.217L33.424 24.05L33.48 25.216V26.456L34.239 27.141L34.906 27.493L35.702 27.437L36.998 27.085L38.46 26.641L40.441 25.845L41.237 25.882L41.422 26.382L41.237 26.863L40.57 27.215L38.552 27.974L37.034 28.418L36.738 28.918L36.682 29.455L37.182 29.899L38.237 30.028H39.089L40.162 29.991L41.329 29.713L43.014 28.824L44.125 28.602L45.069 28.416L45.791 28.657L46.846 28.602L47.883 28.732L48.735 29.232L50.068 29.361L51.808 29.898L52.752 30.027L54.214 29.768L56.084 29.898L56.898 30.212L57.343 30.971L57.25 31.952L57.028 33.155L56.584 34.543L55.955 36.283L55.326 38.19L54.659 39.93L54.215 41.133L52.697 43.503L50.864 45.816L49.217 48.093L47.125 50.184L45.2 51.813L43.978 53.108L43.331 55.237L42.424 56.311L41.276 57.125L39.888 58.272L37.759 59.568L35.964 60.475L34.817 61.789L34.002 62.845L33.188 63.345L32.041 63.919L31.301 63.752L29.839 63.085L28.21 62.03L25.822 60.975L23.138 59.568L21.75 58.513L20.028 57.125L18.14 55.57L16.104 54.83L14.309 54.515L12.014 54.996L10.385 55.903L8.978 56.884L8.256 58.679L7.756 60.068L7.182 62.196L6.535 63.491L5.887 65.472L5.795 67.842L5.221 69.23L4.573 71.433L3.999 73.636L2.944 75.691L2.37 77.727L2.037 80.263L1.13 82.392L0.556002 83.614L0.482 84.836L0.408001 86.891V90.482L0 91.962L0.241001 93.258L0.147001 95.387L0.888 97.09L1.462 97.497L2.517 97.163L3.497 96.274L4.904 94.571L6.126 92.609L6.607 90.98L6.293 89.666L5.885 88.037L5.385 86.075L4.904 84.021L4.645 82.465V81.003L4.978 79.356L5.792 76.838L6.606 75.524L7.347 74.858L7.92 73.969L8.976 73.876L9.476 73.562L10.216 72.895L11.03 72.173L11.77 71.192L12.084 70.046L12.344 69.065L12.418 67.751L12.659 66.604L13.233 65.882L13.807 65.715L14.547 65.956L15.603 66.53L16.75 67.844L17.972 69.639L19.36 71.268L20.841 72.582L22.155 73.637L23.447 74.21L23.854 75.025L23.447 75.433L22.058 75.118L20.096 74.951L17.56 74.451L15.117 73.97L12.174 73.877L10.453 73.97L9.14 74.784L7.752 76.006L6.604 77.968L5.715 80.189L5.623 81.818L6.123 84.761L7.27 88.519L7.844 91.462L8.566 94.331L9.066 96.35L9.307 98.238L9.954 100.367L10.454 103.625L10.935 104.772L12.175 105.753L13.323 106.899L14.618 108.862L15.525 111.157L16.913 113.193L18.95 115.155L20.43 116.062L21.41 116.136L22.224 115.895L22.724 114.749L23.279 113.768L23.612 112.38V109.195L23.205 108.288C23.131 108.288 23.131 107.715 23.131 107.641L22.964 107.068L22.297 106.088L21.075 104.865L18.798 103.885L17.965 103.625L17.817 102.237L17.891 101.348L16.336 99.552L15.355 97.256L14.54 93.997L13.874 90.98L12.745 88.61L12.338 85.741L12.985 84.02L14.133 83.372H15.021L16.335 84.52L18.223 85.668L20.185 86.39L24.923 88.685L27.219 89.999V91.221L29.329 92.442L32.032 93.349H37.678L37.271 94.405L37.031 94.978L37.753 96.348L39.141 98.403L41.363 100.605L44.047 103.549L46.342 105.584L50.637 108.879L54.117 110.748L56.727 112.137L60.078 114.414L63.169 116.617L65.835 118.875L68.611 122.633L68.74 124.205L69.369 125.835L71.072 127.057L72.628 127.668L73.591 127.537L74.352 126.798L75.444 125.632L75.704 124.059L76.999 121.819L77.276 120.097L77.481 118.191L77.61 116.691L78.036 115.749L78.905 115.323H79.739L79.794 115.952L79.185 116.618L78.648 118.061L78.24 118.95V120.042L78.093 122.356L77.761 123.522L76.742 125.28L75.371 127.54L74.003 130.001L73.19 133.204L72.782 136.555L73.19 140.294L73.727 142.479L75.022 145.348L76.669 148.754L77.964 151.419L79.74 154.215L81.849 156.807L82.257 157.695V158.306L81.98 159.065L81.24 160.287L80.074 161.916L77.685 164.99L75.296 167.58L73.112 169.97L72.169 170.525L70.243 171.265L69.095 172.358L68.484 173.598L67.115 175.3L65.562 177.002L63.655 178.983L62.488 181.019L61.803 183.074L61.396 184.776L61.47 186.146L62.284 187.016H65.284L66.578 186.887L67.932 186.074L69.708 185.259L69.984 184.574H70.595L71.538 184.166L72.427 183.334L72.909 180.076L72.63 179.389L72.501 178.704L72.983 178.833L73.518 178.981L74.075 178.573L74.964 178.018L75.907 176.796L77.073 175.149L77.684 173.65L77.813 172.427L78.573 171.871L79.665 171.261L80.554 170.724L81.294 169.225L82.868 167.579L85.809 164.857L88.048 163.358L90.309 162.118L90.843 161.581L91.048 161.025L91.527 160.415L91.193 159.602L91.122 158.102L90.824 156.697L90.472 155.883L89.695 154.55L88.456 152.994L87.846 151.828L87.716 150.605V148.959L87.992 148.016L88.732 145.48L89.49 144.258L90.306 143.777L91.804 142.833L93.581 141.315L95.97 139.28L97.599 137.577L99.245 135.67L100.948 133.745L102.171 131.579L103.189 129.727L104.152 127.618L104.837 125.284L105.042 123.12L105.171 121.473L105.727 120.936L106.337 120.789L106.874 121.142L107.355 122.289L107.484 123.861L107.708 125.36L107.561 126.38L107.43 127.953V131.304L107.837 133.951L108.316 134.636L108.724 134.58L108.927 134.099L108.65 133.007V131.154L109.206 129.599L109.466 127.341L109.742 125.767L110.096 125.027H110.503L110.835 125.36L111.169 126.656L111.445 127.896L111.316 129.858L110.908 132.524L109.669 135.117L108.523 137.578L107.836 139.688L107.707 140.984L107.836 142.483L108.315 143.926H109.205L109.668 143.297L109.407 142.612L109.205 141.389L110.018 140.296L110.963 139L111.592 137.779L113.09 135.389L114.313 133.204L114.85 130.815L115.33 127.669V124.54L114.721 122.355L113.498 120.652L113.35 119.839L113.907 119.562L114.593 119.894L115.482 120.987L116.574 122.967L117.037 125.279L117.314 128.352L118 130.481L118.074 130.537L119.017 132.647L119.627 132.869L119.903 132.314L119.83 131.98L119.366 130.408L119.293 128.835L119.366 126.522L119.774 123.93V122.634L119.627 121.542L118.534 119.356L117.59 117.783L117.924 117.173L119.222 116.896L120.996 116.083L122.903 115.063L124.606 113.564L126.791 110.622L128.03 108.179L129.049 105.847L129.383 102.108L129.457 98.757L128.92 94.611L128.291 91.612L127.754 88.539L127.42 85.337L127.681 83.301L128.236 80.765L129.383 78.247L131.029 75.656L131.64 74.009L131.769 73.195L131.234 72.455L130.478 72.1V73.267L129.867 73.952L128.775 75.581L128.164 75.988L126.461 78.043L125.777 79.135L124.963 80.968L124.074 81.116L123.26 80.635L122.778 78.45L122.909 75.933L123.465 73.6L124.818 71.415L127.555 67.324L129.187 63.992L129.389 61.659L129.129 60.919L128.65 61.4L127.836 63.436L126.596 65.491L124.762 66.991L122.653 69.027L119.507 72.711L118.897 72.655L118.694 72.026L118.62 70.526L118.823 67.731L119.786 64.603L121.489 61.123L123.747 58.328L126.542 55.94L126.802 55.385L126.468 55.126L125.044 55.866L123.876 56.625L121.896 58.328L119.435 60.513L117.675 62.901L115.954 66.029L115.011 68.565L114.734 71.083L114.603 74.489L115.417 78.043L116.231 81.116L117.804 85.948L118.823 91.742L119.434 96.165V98.555L119.173 101.072L118.768 103.129L118.007 105.441L115.138 109.05L112.212 111.715L108.455 113.825L104.845 114.028L104.366 112.269L103.071 109.733L101.294 107.29L100.128 105.848L98.573 103.738L95.22 100.537L91.815 97.742L90.317 96.574L85.614 93.39L78.858 87.725L75.173 83.153L71.139 76.545L70.046 72.584L70.322 70.122L70.878 69.641L72.305 70.603L74.563 71.695L76.397 71.621L78.505 72.584L80.764 73.954L81.93 74.898L83.43 75.935L84.985 76.139L85.337 75.454L84.929 75.38L84.449 75.584L83.691 75.103L83.023 74.085L82.062 72.511L80.21 70.809L78.378 70.124L77.358 69.92L77.563 69.383H78.987L80.634 69.92L83.022 71.493L84.116 71.974L84.522 71.418L83.835 70.474L81.984 68.826L79.115 67.327L75.652 65.976L74.968 65.421L75.652 64.94L77.208 65.699L80.079 66.18L83.15 67.402L84.779 68.216L87.648 68.623L89.704 68.346L90.85 67.809L92.424 66.846L93.11 66.18L93.184 65.699L92.547 65.751L91.939 66.38L89.902 67.047L88.125 67.324L86.625 67.12L85.182 65.973L83.887 64.455L82.332 63.308L80 62.827L77.76 62.068L76.797 61.457L76.871 60.921L77.76 61.05H79.74L81.719 60.921H83.756L84.849 60.717L85.738 61.457L87.162 61.809H88.328L88.865 61.402L87.922 61.124L86.756 60.365L85.533 59.218L83.553 58.181L81.924 57.977L80.426 57.773L79.869 57.44L80.963 56.829H82.738L84.109 57.236L85.461 57.922L87.645 58.866L89.829 58.94L90.995 58.385L91.329 57.644L90.44 57.237L88.608 57.163L87.034 56.626L85.666 55.46L84.166 54.701L82.187 54.368L80.484 53.757L79.744 52.795L79.873 52.314L80.967 52.536L82.336 52.943L83.15 53.554L84.316 53.683L84.445 53.072L83.224 52.11L82.87 51.24L84.516 51.499L86.071 52.313L88.051 52.535L88.811 53.96L90.846 55.182L90.957 55.163L91.402 54.978L91.939 54.645L91.678 54.238L90.918 54.293L90.233 53.349L88.862 51.239L86.475 49.111L84.032 48.019L83.346 47.205L81.846 45.428L80.477 44.688L80.274 44.003L80.883 43.596L82.328 43.929L85.178 44.743L86.549 45.224L87.438 46.464L88.862 47.205H89.955L91.399 47.612L92.971 47.334L93.582 46.797L92.693 46.038L91.398 45.705L89.898 45.501L89.008 44.742L87.842 43.039L87.566 41.947L86.066 40.595L84.437 39.558L82.584 38.41L80.549 36.504L80.42 35.948H80.881L83.547 38.058L86.269 39.631L87.713 40.723L89.547 42.425L91.193 43.313L92.138 43.591L92.618 42.832L91.934 42.573L90.507 41.277L90.1 39.834L88.602 38.205L87.362 37.168L86.751 35.613L84.642 32.467L81.773 29.949L81.642 29.135L82.66 29.264L84.105 30.005L86.417 30.967L88.806 31.097L90.583 31.93L92.489 32.263L94.118 31.782L93.989 31.097L92.137 30.689L90.507 29.949L87.231 28.376L85.456 27.414L84.511 26.266L84.845 25.858L85.325 26.191L86.065 26.469L87.028 26.543H88.602L89.952 26.395L92.009 26.266L93.581 26.877L95.21 28.043L95.896 28.247L95.97 27.636L95.413 27.081L93.784 25.581L91.249 24.285L89.417 24.081L85.937 23.877L85.124 22.915L83.348 21.138L81.368 19.787L80.628 19.102L81.239 18.621L82.182 19.028L83.884 19.917L85.809 20.602L88.401 21.213H90.641L92.493 23.268L93.993 24.156L94.53 23.601L92.493 20.602L89.29 18.289L86.624 17.66L84.366 15.29L82.386 14.124L79.665 13.439L81.165 12.144L83.829 11.255L85.809 10.644L86.272 10.034L86.013 9.553L84.919 9.276L83.884 9.072L76.184 9.22L74.815 7.702L73.259 6.684L71.28 5.795L68.687 5.387H66.447L65.837 4.573L63.727 2.315L61.191 0L59.636 2.592L59.562 3.406L60.303 4.368L60.377 5.182L59.841 5.663L58.119 5.792L54.99 4.903L51.917 4.24L50.491 4.295L48.159 4.776L48.436 5.591L49.732 5.535L50.269 5.628Z" fill="#F2F2F2"/>
</svg>
