<svg width="133" height="189" viewBox="0 0 133 189" fill="none" xmlns="http://www.w3.org/2000/svg">
<path d="M70.342 125.647L70.008 126.463L70.231 127.943L70.99 131.256L72.304 135.625L73.396 138.235L74.858 141.567L75.895 143.529L77.487 146.417L79.393 149.636L80.893 151.711L82.151 153.395L82.207 154.321L82.041 155.08L81.338 155.357L79.227 155.468L75.525 155.247L72.471 154.857L69.787 154.376L66.528 153.451L64.881 152.729L63.789 152.248L62.548 152.025L61.123 152.081L60.365 152.414H59.328L56.866 152.025L55.459 151.544L53.923 151.433L51.479 151.379L49.628 151.211H47.925L46.241 151.322L45.093 151.802L44.278 152.025L44 152.414L44.056 153.174L44.833 154.431L46.296 156.45L47.166 156.819L48.536 157.801L50.109 158.672L51.812 159.226L54.256 159.282L56.44 159.059L58.291 158.635L59.865 158.135L60.531 158.468L60.846 159.115L61.401 159.282L62.752 159.226L64.455 159.338L65.326 159.615L66.362 159.338L69.731 159.761L72.026 160.095L75.784 160.911L78.523 161.724L81.227 162.651L83.612 163.743L84.539 164.409L87.002 164.52L88.315 164.187L89.018 162.761L89.776 161.022L89.558 159.615L88.632 157.856L87.392 155.301L86.408 152.636L85.686 149.636L85.373 147.064V144.565L85.632 141.622L85.966 140.14L85.576 138.883L84.763 138.235L83.134 137.032L81.983 136.217L81.765 134.643L81.227 132.959L80.207 131.311L79.116 129.905L77.747 128.592L76.006 127.276L74.044 125.813L73.007 125.314L71.971 125L71.101 125.147L70.342 125.647Z" fill="#D6D3D3" stroke="#C4BFBF" stroke-width="0.216" stroke-miterlimit="2.613"/>
<path d="M51.269 6.628L51.251 7.35L50.492 7.517L49.511 7.388L48.03 7.702L46.92 8.054L46.031 8.11L45.753 8.499L46.068 9.036L46.735 9.184L47.364 8.999L48.086 8.684L48.827 8.647L50.4 8.721L51.603 9.091L53.028 9.443L55.12 10.387L55.306 10.832L55.084 11.183L54.103 11.535L53.511 11.813L52.456 12.516L50.846 13.368L48.884 14.757L46.644 15.775L44.867 16.942L43.257 17.646L41.739 18.016L40.406 18.053L38.573 18.09L37.869 18.275L37.462 19.127L37.147 20.053L36.795 20.682L35.906 22.015L35.054 23.495L34.48 24.217L34.424 25.05L34.48 26.216V27.456L35.239 28.141L35.906 28.493L36.702 28.437L37.998 28.085L39.46 27.641L41.441 26.845L42.237 26.882L42.422 27.382L42.237 27.863L41.57 28.215L39.552 28.974L38.034 29.418L37.738 29.918L37.682 30.455L38.182 30.899L39.237 31.028H40.089L41.162 30.991L42.329 30.713L44.014 29.824L45.125 29.602L46.069 29.416L46.791 29.657L47.846 29.602L48.883 29.732L49.735 30.232L51.068 30.361L52.808 30.898L53.752 31.027L55.214 30.768L57.084 30.898L57.898 31.212L58.343 31.971L58.25 32.952L58.028 34.155L57.584 35.543L56.955 37.283L56.326 39.19L55.659 40.93L55.215 42.133L53.697 44.503L51.864 46.816L50.217 49.093L48.125 51.184L46.2 52.813L44.978 54.108L44.331 56.237L43.424 57.311L42.276 58.125L40.888 59.272L38.759 60.568L36.964 61.475L35.817 62.789L35.002 63.845L34.188 64.345L33.041 64.919L32.301 64.752L30.839 64.085L29.21 63.03L26.822 61.975L24.138 60.568L22.75 59.513L21.028 58.125L19.14 56.57L17.104 55.83L15.309 55.515L13.014 55.996L11.385 56.903L9.978 57.884L9.256 59.679L8.756 61.068L8.182 63.196L7.535 64.491L6.887 66.472L6.795 68.842L6.221 70.23L5.573 72.433L4.999 74.636L3.944 76.691L3.37 78.727L3.037 81.263L2.13 83.392L1.556 84.614L1.482 85.836L1.408 87.891V91.482L1 92.962L1.241 94.258L1.147 96.387L1.888 98.09L2.462 98.497L3.517 98.163L4.497 97.274L5.904 95.571L7.126 93.609L7.607 91.98L7.293 90.666L6.885 89.037L6.385 87.075L5.904 85.021L5.645 83.465V82.003L5.978 80.356L6.792 77.838L7.606 76.524L8.347 75.858L8.92 74.969L9.976 74.876L10.476 74.562L11.216 73.895L12.03 73.173L12.77 72.192L13.084 71.046L13.344 70.065L13.418 68.751L13.659 67.604L14.233 66.882L14.807 66.715L15.547 66.956L16.603 67.53L17.75 68.844L18.972 70.639L20.36 72.268L21.841 73.582L23.155 74.637L24.447 75.21L24.854 76.025L24.447 76.433L23.058 76.118L21.096 75.951L18.56 75.451L16.117 74.97L13.174 74.877L11.453 74.97L10.14 75.784L8.752 77.006L7.604 78.968L6.715 81.189L6.623 82.818L7.123 85.761L8.27 89.519L8.844 92.462L9.566 95.331L10.066 97.35L10.307 99.238L10.954 101.367L11.454 104.625L11.935 105.772L13.175 106.753L14.323 107.899L15.618 109.862L16.525 112.157L17.913 114.193L19.95 116.155L21.43 117.062L22.41 117.136L23.224 116.895L23.724 115.749L24.279 114.768L24.612 113.38V110.195L24.205 109.288C24.131 109.288 24.131 108.715 24.131 108.641L23.964 108.068L23.297 107.088L22.075 105.865L19.798 104.885L18.965 104.625L18.817 103.237L18.891 102.348L17.336 100.552L16.355 98.256L15.54 94.997L14.874 91.98L13.745 89.61L13.338 86.741L13.985 85.02L15.133 84.372H16.021L17.335 85.52L19.223 86.668L21.185 87.39L25.923 89.685L28.219 90.999V92.221L30.329 93.442L33.032 94.349H38.678L38.271 95.405L38.031 95.978L38.753 97.348L40.141 99.403L42.363 101.605L45.047 104.549L47.342 106.584L51.637 109.879L55.117 111.748L57.727 113.137L61.078 115.414L64.169 117.617L66.835 119.875L69.611 123.633L69.74 125.205L70.369 126.835L72.072 128.057L73.628 128.668L74.591 128.537L75.352 127.798L76.444 126.632L76.704 125.059L77.999 122.819L78.276 121.097L78.481 119.191L78.61 117.691L79.036 116.749L79.905 116.323H80.739L80.794 116.952L80.185 117.618L79.648 119.061L79.24 119.95V121.042L79.093 123.356L78.761 124.522L77.742 126.28L76.371 128.54L75.003 131.001L74.19 134.204L73.782 137.555L74.19 141.294L74.727 143.479L76.022 146.348L77.669 149.754L78.964 152.419L80.74 155.215L82.849 157.807L83.257 158.695V159.306L82.98 160.065L82.24 161.287L81.074 162.916L78.685 165.99L76.296 168.58L74.112 170.97L73.169 171.525L71.243 172.265L70.095 173.358L69.484 174.598L68.115 176.3L66.562 178.002L64.655 179.983L63.488 182.019L62.803 184.074L62.396 185.776L62.47 187.146L63.284 188.016H66.284L67.578 187.887L68.932 187.074L70.708 186.259L70.984 185.574H71.595L72.538 185.166L73.427 184.334L73.909 181.076L73.63 180.389L73.501 179.704L73.983 179.833L74.518 179.981L75.075 179.573L75.964 179.018L76.907 177.796L78.073 176.149L78.684 174.65L78.813 173.427L79.573 172.871L80.665 172.261L81.554 171.724L82.294 170.225L83.868 168.579L86.809 165.857L89.048 164.358L91.309 163.118L91.843 162.581L92.048 162.025L92.527 161.415L92.193 160.602L92.122 159.102L91.824 157.697L91.472 156.883L90.695 155.55L89.456 153.994L88.846 152.828L88.716 151.605V149.959L88.992 149.016L89.732 146.48L90.49 145.258L91.306 144.777L92.804 143.833L94.581 142.315L96.97 140.28L98.599 138.577L100.245 136.67L101.948 134.745L103.171 132.579L104.189 130.727L105.152 128.618L105.837 126.284L106.042 124.12L106.171 122.473L106.727 121.936L107.337 121.789L107.874 122.142L108.355 123.289L108.484 124.861L108.708 126.36L108.561 127.38L108.43 128.953V132.304L108.837 134.951L109.316 135.636L109.724 135.58L109.927 135.099L109.65 134.007V132.154L110.206 130.599L110.466 128.341L110.742 126.767L111.096 126.027H111.503L111.835 126.36L112.169 127.656L112.445 128.896L112.316 130.858L111.908 133.524L110.669 136.117L109.523 138.578L108.836 140.688L108.707 141.984L108.836 143.483L109.315 144.926H110.205L110.668 144.297L110.407 143.612L110.205 142.389L111.018 141.296L111.963 140L112.592 138.779L114.09 136.389L115.313 134.204L115.85 131.815L116.33 128.669V125.54L115.721 123.355L114.498 121.652L114.35 120.839L114.907 120.562L115.593 120.894L116.482 121.987L117.574 123.967L118.037 126.279L118.314 129.352L119 131.481L119.074 131.537L120.017 133.647L120.627 133.869L120.903 133.314L120.83 132.98L120.366 131.408L120.293 129.835L120.366 127.522L120.774 124.93V123.634L120.627 122.542L119.534 120.356L118.59 118.783L118.924 118.173L120.222 117.896L121.996 117.083L123.903 116.063L125.606 114.564L127.791 111.622L129.03 109.179L130.049 106.847L130.383 103.108L130.457 99.757L129.92 95.611L129.291 92.612L128.754 89.539L128.42 86.337L128.681 84.301L129.236 81.765L130.383 79.247L132.029 76.656L132.64 75.009L132.769 74.195L132.234 73.455L131.478 73.1V74.267L130.867 74.952L129.775 76.581L129.164 76.988L127.461 79.043L126.777 80.135L125.963 81.968L125.074 82.116L124.26 81.635L123.778 79.45L123.909 76.933L124.465 74.6L125.818 72.415L128.555 68.324L130.187 64.992L130.389 62.659L130.129 61.919L129.65 62.4L128.836 64.436L127.596 66.491L125.762 67.991L123.653 70.027L120.507 73.711L119.897 73.655L119.694 73.026L119.62 71.526L119.823 68.731L120.786 65.603L122.489 62.123L124.747 59.328L127.542 56.94L127.802 56.385L127.468 56.126L126.044 56.866L124.876 57.625L122.896 59.328L120.435 61.513L118.675 63.901L116.954 67.029L116.011 69.565L115.734 72.083L115.603 75.489L116.417 79.043L117.231 82.116L118.804 86.948L119.823 92.742L120.434 97.165V99.555L120.173 102.072L119.768 104.129L119.007 106.441L116.138 110.05L113.212 112.715L109.455 114.825L105.845 115.028L105.366 113.269L104.071 110.733L102.294 108.29L101.128 106.848L99.573 104.738L96.22 101.537L92.815 98.742L91.317 97.574L86.614 94.39L79.858 88.725L76.173 84.153L72.139 77.545L71.046 73.584L71.322 71.122L71.878 70.641L73.305 71.603L75.563 72.695L77.397 72.621L79.505 73.584L81.764 74.954L82.93 75.898L84.43 76.935L85.985 77.139L86.337 76.454L85.929 76.38L85.449 76.584L84.691 76.103L84.023 75.085L83.062 73.511L81.21 71.809L79.378 71.124L78.358 70.92L78.563 70.383H79.987L81.634 70.92L84.022 72.493L85.116 72.974L85.522 72.418L84.835 71.474L82.984 69.826L80.115 68.327L76.652 66.976L75.968 66.421L76.652 65.94L78.208 66.699L81.079 67.18L84.15 68.402L85.779 69.216L88.648 69.623L90.704 69.346L91.85 68.809L93.424 67.846L94.11 67.18L94.184 66.699L93.547 66.751L92.939 67.38L90.902 68.047L89.125 68.324L87.625 68.12L86.182 66.973L84.887 65.455L83.332 64.308L81 63.827L78.76 63.068L77.797 62.457L77.871 61.921L78.76 62.05H80.74L82.719 61.921H84.756L85.849 61.717L86.738 62.457L88.162 62.809H89.328L89.865 62.402L88.922 62.124L87.756 61.365L86.533 60.218L84.553 59.181L82.924 58.977L81.426 58.773L80.869 58.44L81.963 57.829H83.738L85.109 58.236L86.461 58.922L88.645 59.866L90.829 59.94L91.995 59.385L92.329 58.644L91.44 58.237L89.608 58.163L88.034 57.626L86.666 56.46L85.166 55.701L83.187 55.368L81.484 54.757L80.744 53.795L80.873 53.314L81.967 53.536L83.336 53.943L84.15 54.554L85.316 54.683L85.445 54.072L84.224 53.11L83.87 52.24L85.516 52.499L87.071 53.313L89.051 53.535L89.811 54.96L91.846 56.182L91.957 56.163L92.402 55.978L92.939 55.645L92.678 55.238L91.918 55.293L91.233 54.349L89.862 52.239L87.475 50.111L85.032 49.019L84.346 48.205L82.846 46.428L81.477 45.688L81.274 45.003L81.883 44.596L83.328 44.929L86.178 45.743L87.549 46.224L88.438 47.464L89.862 48.205H90.955L92.399 48.612L93.971 48.334L94.582 47.797L93.693 47.038L92.398 46.705L90.898 46.501L90.008 45.742L88.842 44.039L88.566 42.947L87.066 41.595L85.437 40.558L83.584 39.41L81.549 37.504L81.42 36.948H81.881L84.547 39.058L87.269 40.631L88.713 41.723L90.547 43.425L92.193 44.313L93.138 44.591L93.618 43.832L92.934 43.573L91.507 42.277L91.1 40.834L89.602 39.205L88.362 38.168L87.751 36.613L85.642 33.467L82.773 30.949L82.642 30.135L83.66 30.264L85.105 31.005L87.417 31.967L89.806 32.097L91.583 32.93L93.489 33.263L95.118 32.782L94.989 32.097L93.137 31.689L91.507 30.949L88.231 29.376L86.456 28.414L85.511 27.266L85.845 26.858L86.325 27.191L87.065 27.469L88.028 27.543H89.602L90.952 27.395L93.009 27.266L94.581 27.877L96.21 29.043L96.896 29.247L96.97 28.636L96.413 28.081L94.784 26.581L92.249 25.285L90.417 25.081L86.937 24.877L86.124 23.915L84.348 22.138L82.368 20.787L81.628 20.102L82.239 19.621L83.182 20.028L84.884 20.917L86.809 21.602L89.401 22.213H91.641L93.493 24.268L94.993 25.156L95.53 24.601L93.493 21.602L90.29 19.289L87.624 18.66L85.366 16.29L83.386 15.124L80.665 14.439L82.165 13.144L84.829 12.255L86.809 11.644L87.272 11.034L87.013 10.553L85.919 10.276L84.884 10.072L77.184 10.22L75.815 8.702L74.259 7.684L72.28 6.795L69.687 6.387H67.447L66.837 5.573L64.727 3.315L62.191 1L60.636 3.592L60.562 4.406L61.303 5.368L61.377 6.182L60.841 6.663L59.119 6.792L55.99 5.903L52.917 5.24L51.491 5.295L49.159 5.776L49.436 6.591L50.732 6.535L51.269 6.628Z" fill="#D6D3D3" stroke="#C4BFBF" stroke-width="0.216" stroke-miterlimit="2.613"/>
</svg>
