<svg width="66" height="66" viewBox="0 0 66 66" fill="none" xmlns="http://www.w3.org/2000/svg">
<path d="M33 0.5C15.0797 0.5 0.5 15.0797 0.5 33C0.5 50.9203 15.0797 65.5 33 65.5C50.9203 65.5 65.5 50.9203 65.5 33C65.5 15.0797 50.9203 0.5 33 0.5ZM44.7672 41.2328C45.0091 41.4627 45.2026 41.7386 45.3362 42.0444C45.4698 42.3502 45.5408 42.6796 45.5451 43.0133C45.5493 43.3469 45.4868 43.6781 45.361 43.9872C45.2353 44.2963 45.049 44.5771 44.813 44.813C44.5771 45.049 44.2963 45.2353 43.9872 45.361C43.6781 45.4868 43.3469 45.5493 43.0133 45.5451C42.6796 45.5408 42.3502 45.4698 42.0444 45.3362C41.7386 45.2026 41.4627 45.0091 41.2328 44.7672L33 36.5359L24.7672 44.7672C24.2945 45.2162 23.6652 45.4629 23.0133 45.4545C22.3613 45.4462 21.7385 45.1835 21.2775 44.7225C20.8165 44.2615 20.5538 43.6387 20.5455 42.9867C20.5371 42.3348 20.7838 41.7055 21.2328 41.2328L29.4641 33L21.2328 24.7672C20.7838 24.2945 20.5371 23.6652 20.5455 23.0133C20.5538 22.3613 20.8165 21.7385 21.2775 21.2775C21.7385 20.8165 22.3613 20.5538 23.0133 20.5455C23.6652 20.5371 24.2945 20.7838 24.7672 21.2328L33 29.4641L41.2328 21.2328C41.7055 20.7838 42.3348 20.5371 42.9867 20.5455C43.6387 20.5538 44.2615 20.8165 44.7225 21.2775C45.1835 21.7385 45.4462 22.3613 45.4545 23.0133C45.4629 23.6652 45.2162 24.2945 44.7672 24.7672L36.5359 33L44.7672 41.2328Z" fill="#181818"/>
</svg>
