<svg width="80" height="80" viewBox="0 0 80 80" fill="none" xmlns="http://www.w3.org/2000/svg">
<path d="M40.0003 66.6665C25.3003 66.6665 13.3337 54.6998 13.3337 39.9998C13.3337 25.2998 25.3003 13.3332 40.0003 13.3332C54.7003 13.3332 66.667 25.2998 66.667 39.9998C66.667 54.6998 54.7003 66.6665 40.0003 66.6665ZM40.0003 6.6665C21.567 6.6665 6.66699 21.5665 6.66699 39.9998C6.66699 58.4332 21.567 73.3332 40.0003 73.3332C58.4337 73.3332 73.3337 58.4332 73.3337 39.9998C73.3337 21.5665 58.4337 6.6665 40.0003 6.6665ZM48.6337 26.6665L40.0003 35.2998L31.367 26.6665L26.667 31.3665L35.3003 39.9998L26.667 48.6332L31.367 53.3332L40.0003 44.6998L48.6337 53.3332L53.3337 48.6332L44.7003 39.9998L53.3337 31.3665L48.6337 26.6665Z" fill="#181818"/>
</svg>
