<svg width="601" height="633" viewBox="0 0 601 633" fill="none" xmlns="http://www.w3.org/2000/svg">
<path d="M601 17V81.9428H0V616.076C0 625.368 13.5927 633 30.1811 633H570.819C578.811 632.989 586.47 631.203 592.125 628.032C597.78 624.861 600.97 620.563 601 616.076V17.0631V17Z" fill="#F6D33C"/>
<path d="M570.819 0H30.1811C13.5927 0 0 8.11258 0 18.028V27H601V17.9651C600.925 8.09161 587.407 0 570.819 0Z" fill="#2F9C5C"/>
<path d="M0 27.412V53V27.412ZM0 27.412H601V53H0V27.412ZM0 25V27.412V25Z" fill="white"/>
<path d="M0 54H601V82H0V54Z" fill="#CF4037"/>
<path d="M0 53V54V53ZM0 53H601V54H0V53Z" fill="#D35B31"/>
<path d="M27 605.979V599.621H33.323C36.5032 599.621 42.8262 599.246 42.8262 595.014V556.885C42.8262 554.592 42.5269 549.109 34.5951 549.109H27.2993L35.5679 541H523V549.109H74.5534C70.4379 549.109 65.0502 549.631 65.0502 554.238V566.245C65.9856 567.642 69.8018 568.184 71.71 568.184C73.6181 568.184 80.2778 567.996 80.2778 562.18H89.7436V581.776H80.2404C80.2404 580.004 76.7235 577.044 72.0093 576.835C68.193 576.669 65.0502 577.377 65.0502 580.213V595.035C65.0502 596.619 68.5298 599.642 76.7609 599.642H82.4478V606H27V605.979V605.979Z" fill="black"/>
<path d="M308.068 558.925C308.068 560.355 311.219 561.786 313.132 562.123C315.382 561.239 327.122 557.494 336.311 557.494C345.501 557.494 350.302 560.166 350.302 564.27V583.882H328.06V568.71C328.06 566.753 327.122 565.343 323.934 565.153C320.746 564.964 312.494 568.731 310.281 570.52V597.603C310.281 600.107 314.744 601.875 318.533 601.875V607.051H279.787V601.706C283.613 601.706 287.739 600.991 288.039 597.771V567.637C288.039 566.753 285.488 564.27 279.787 564.27V558.903H308.068V558.925V558.925ZM574 558.925H535.254V564.291C540.955 564.291 543.506 566.774 543.506 567.658V597.792C543.206 600.991 539.042 601.727 535.254 601.727V607.072H574V601.875C570.174 601.875 565.748 600.107 565.748 597.603V568.036C565.748 565.89 569.874 564.291 574 564.291V558.925ZM222.325 558.925C222.325 560.355 225.475 561.786 227.388 562.123C229.639 561.239 241.379 557.494 250.568 557.494C259.795 557.494 264.559 560.166 264.559 564.27V583.882H242.316V568.71C242.316 566.753 241.379 565.343 238.19 565.153C235.002 564.964 226.75 568.71 224.538 570.499V597.582C224.538 600.086 229.001 601.854 232.789 601.854V607.03H194.043V601.685C197.869 601.685 201.995 600.97 202.295 597.75V567.616C202.295 566.732 199.745 564.249 194.043 564.249V558.882H222.325V558.925V558.925ZM479.967 558.925C479.967 560.355 483.156 561.786 485.068 562.123C487.319 561.239 499.059 557.494 508.248 557.494C517.438 557.494 522.239 560.166 522.239 564.27V583.882H499.997V568.71C499.997 566.753 499.059 565.343 495.871 565.153C492.683 564.964 484.431 568.71 482.218 570.499V597.582C482.218 600.086 486.644 601.854 490.47 601.854V607.03H451.724V601.685C455.55 601.685 459.638 600.97 459.976 597.75V567.616C459.976 566.732 457.425 564.249 451.724 564.249V558.882H479.967V558.925V558.925ZM177.24 592.11H155.035V596.929C155.035 598.886 154.397 602.99 143.933 602.99C133.468 602.99 130.28 599.055 130.28 596.214V586.071C130.28 585.166 131.555 583.924 133.768 583.924H177.277V570.919C177.277 565.027 175.064 563.238 170.601 560.755C166.137 558.272 150.572 557.557 143.595 557.557C125.816 557.557 120.078 558.967 115.014 561.302C109.913 563.617 108 568.436 108 571.993V592.153C108 597.498 109.913 601.243 115.952 604.631C121.99 607.998 140.407 607.998 144.233 607.998C148.059 607.998 160.736 608.188 169.963 604.442C179.19 600.654 177.24 592.11 177.24 592.11V592.11ZM130.242 569.993C130.242 567.132 131.818 562.86 142.957 562.86C154.097 562.86 155.035 567.51 155.035 569.993V576.412C155.025 576.979 154.619 577.522 153.904 577.924C153.188 578.325 152.221 578.553 151.209 578.558H134.068C132.193 578.558 130.242 577.674 130.242 576.601V569.993V569.993ZM432.032 597.603V570.877C432.032 566.774 431.694 562.502 424.08 559.451C416.466 556.42 404.051 556.61 399.288 556.61C394.524 556.61 378.658 556.61 371.307 561.239C364.03 565.89 365.268 570.33 365.268 572.119H386.085C386.085 572.119 387.51 566.058 390.398 564.459C393.249 562.86 400.863 561.071 406.752 563.933C408.927 564.985 409.79 566.332 409.79 567.868V575.528C409.79 576.243 408.514 577.317 406.902 577.317C406.902 577.317 377.983 577.674 372.919 579.8C367.856 581.946 363.392 583.356 363.392 591.206C363.392 599.055 366.881 602.085 371.006 603.684C375.132 605.284 377.045 607.072 395.799 607.072H440.284V601.875C436.458 601.875 432.032 600.107 432.032 597.603V597.603ZM409.79 600.654C409.79 601.096 408.514 601.727 407.539 601.727H396.587C388.785 601.727 386.572 597.982 386.572 595.667V588.807C386.572 582.136 398.95 582.283 403.863 582.283C408.815 582.283 409.752 584.598 409.752 586.134V600.654H409.79ZM553.146 549.581C564.285 549.581 573.287 547.687 573.287 545.351C573.287 543.015 564.285 541.122 553.146 541.122C542.043 541.122 533.041 543.015 533.041 545.351C533.041 547.687 542.043 549.581 553.146 549.581ZM274.086 362.545L272.923 364.144L276.374 373.677L281.025 382.347L293.74 398.024L306.08 410.124L315.87 417.595L316.057 419.405L315.457 420.92L312.981 421.467L292.427 421.257L272.135 419.531L250.943 415.301L241.529 414.986L238.828 415.638L226.45 414.88L221.499 413.912L188.905 413.47L184.854 414.417L181.966 414.88L180.991 415.638L181.178 417.132L189.092 423.656L192.168 424.392L202.595 428.054L208.597 429.148L224.95 428.832L237.065 426.98L239.428 427.633L240.516 428.938L242.504 429.253L253.306 429.358L256.382 429.906L260.02 429.358L280.049 430.874L303.004 434.114L321.008 438.113L324.309 439.438L333.011 439.649L337.662 438.996L342.8 432.704L342.013 429.906L334.361 421.362L330.91 416.08L327.235 405.032L328.172 394.215L329.335 391.311L327.947 388.786L315.269 383.504L312.569 377.044L305.142 371.004L287.213 362.881L279.862 361.261L276.786 361.535L274.086 362.545V362.545ZM280.987 141.923L280.462 138.787L272.548 133.4L270.11 133L268.422 134.347L268.647 135.967L265.984 137.314L265.721 139.187L273.26 141.923H280.987Z" fill="black"/>
<path d="M539.124 275.732L536.423 275.037V277.331L534.285 278.678L530.421 281.92L528.245 282.719L519.805 288.97L516.916 292.612L513.765 292.906L510.876 291.938L509.188 287.623L509.638 282.614L511.589 277.984L526.069 265.545L531.809 258.936L532.559 254.306L531.659 252.853L529.933 253.8L527.045 257.842L522.656 261.904L508.7 268.912L497.596 276.237L495.42 276.111L494.67 274.869L495.158 266.345L498.534 260.136L504.574 253.232L512.564 247.676L522.468 242.94L523.368 241.825L522.168 241.319L513.014 244.308L497.334 252.011L491.106 256.768L485.029 262.977L481.69 267.986L480.227 279.752L486.004 292.906L491.556 302.483L497.334 322.751L496.396 332.496L492.269 341.147L482.103 348.324L471.786 353.607L458.507 357.795L445.752 358.216L444.026 354.722L439.449 349.692L423.543 337.8L411.689 331.444L394.357 323.593L377.739 317.258L353.842 306.04L340.862 296.947L326.569 283.835L322.706 275.984L323.681 271.101L325.632 270.154L338.687 274.216L345.139 274.069L360.595 278.699L370.048 282.635L375.525 283.056L376.801 281.709L375.338 281.562L373.65 281.983L370.949 281.015L365.171 275.879L358.644 272.511L348.553 270.744L349.265 269.67H354.33L360.145 270.744L372.449 274.806L373.912 273.711L371.511 271.817L364.984 268.555L354.818 265.587L342.55 262.893L340.15 261.798L342.55 260.83L348.028 262.346L358.194 263.293L374.813 267.334L384.979 268.134L392.219 267.586L401.86 264.598L404.261 263.293L404.524 262.346L402.31 262.43L400.135 263.693L386.667 265.566L381.34 265.145L376.238 262.872L371.624 259.862L366.184 257.589L350.016 255.126L346.602 253.906L346.865 252.853L350.016 253.106L375.075 252.453L378.226 253.906L387.38 254.6L389.293 253.8L385.954 253.253L377.476 249.465L370.461 247.402L359.394 246.602L357.481 245.95L361.345 244.729H367.61L384.979 248.749L392.707 248.896L396.796 247.802L397.996 246.329L394.883 245.529L388.393 245.382L382.841 244.308L378.001 241.993L372.674 240.499L365.659 239.846L359.619 238.625L356.993 236.71L357.444 235.763L366.147 237.026L369.035 238.226L373.162 238.499L373.612 237.278L369.298 235.363L368.06 233.637L373.875 234.142L379.352 235.763L386.367 236.205L389.068 239.046L396.271 241.467L396.683 241.425L398.259 241.046L400.135 240.393L399.234 239.594L396.533 239.699L389.293 233.637L380.852 229.428L372.187 227.239L364.496 222.103L359.657 220.651L358.907 219.283L361.082 218.462L381.115 221.682L384.229 224.145L389.293 225.618H393.157L398.296 226.418L403.848 225.871L405.987 224.797L402.873 223.303L392.969 222.23L389.818 220.735L385.692 217.368L384.716 215.179L367.085 208.17L359.92 204.382L359.432 203.287H361.082L370.498 207.497L385.242 212.779L391.731 216.168L400.885 218.462L402.573 216.968L400.172 216.463L395.145 213.895L393.682 211.032L384.004 205.729L381.828 202.656L374.362 196.384L364.196 191.395L363.746 189.796L367.347 190.048L380.627 193.437L389.068 193.69L395.333 195.352L402.085 196.005L407.825 195.037L407.375 193.69L400.81 192.89L377.176 186.386L373.912 184.092L375.075 183.292L376.801 183.945L379.389 184.471L382.803 184.639L400.397 184.092L405.949 185.313L411.726 187.607L414.165 188.028L414.427 186.807L412.477 185.713L406.7 182.724L397.734 180.156L378.939 179.335L369.786 173.926L360.182 169.885L362.358 168.938L378.526 172.874L387.68 174.095H395.595L402.123 178.178L407.45 179.925L409.363 178.83L402.123 172.853L390.794 168.264L381.378 167.002L373.387 162.308L366.372 160.014L356.768 158.646L362.095 156.078L378.526 153.089L380.177 151.869L379.277 150.921L371.661 149.974L344.464 150.269L339.624 147.259L327.095 143.492L317.941 142.671H310.026L300.422 136.567L291.456 132L285.942 137.136L285.679 138.735L288.268 140.65L288.53 142.271L286.654 143.218L280.54 143.492L258.631 140.398L245.351 141.471L246.327 143.071L250.941 142.966L252.817 143.155L252.742 144.586L250.078 144.923L246.589 144.649L237.436 145.975L234.285 146.102L233.309 146.859L234.435 147.933L236.798 148.227L239.012 147.87L241.563 147.238L244.189 147.175L249.741 147.301L259.007 148.712L266.397 150.585L267.072 151.49L266.322 152.184L262.833 152.879L260.732 153.426L244.376 159.277L224.456 165.002L207.912 165.886L205.436 166.265L204.011 167.949L202.886 169.78L201.648 171.043L195.458 176.599L193.432 178.03L193.244 179.693L193.432 184.471L196.133 185.818L198.496 186.512L201.31 186.386L218.079 183.25L220.892 183.313L221.53 184.323L220.892 185.271L218.529 185.965L205.999 188.343L204.949 189.333L204.761 190.406L206.524 191.29L210.276 191.564H213.277L221.192 190.932L227.12 189.164L231.059 188.722L234.435 188.343L236.986 188.807L244.414 188.975L247.415 189.964L258.294 191.269L261.633 191.543L266.81 191.038L273.374 191.29L276.263 191.922L277.839 193.416L275.138 200.53L266.735 213.6L249.065 227.386L230.533 237.363L228.245 241.572L225.056 243.698L208.588 250.159L202.248 251.969L195.308 256.663L192.419 257.673L188.368 258.81L185.742 258.473L156.893 250.159L139.187 242.224L131.984 240.772L125.644 240.12L117.541 241.088L106.812 244.834L95.8578 261.883L95.5202 266.597L89.1803 278.089L85.4289 282.151L83.4032 286.192L82.2027 291.222L76.9507 297.852L76.4255 311.47L75 314.417L75.8253 316.984L75.4877 321.194L78.1137 324.582L80.1394 325.382L83.8908 324.73L92.3315 319.594L96.6456 315.679L98.3713 312.459L91.4312 295.558L92.5941 289.391L95.4827 284.403L103.023 278.699L106.737 278.51L108.5 277.9L116.603 273.185L118.666 268.976L119.754 264.093L121.78 262.661L123.806 262.325L126.394 262.809L130.146 263.945L143.426 273.332L153.292 278.047L157.906 279.183L159.332 280.804L157.906 281.604L128.458 278.699H111.951L102.385 282.74L98.3338 286.634L95.2576 291.054L94.92 294.295L96.6831 300.125L100.735 307.576L110.226 331.086L111.989 337.548L113.677 339.821L122.118 344.051L126.694 347.945L129.883 352.512L134.797 356.532L142 360.447L147.252 362.236L150.703 362.383L153.592 361.92L157.306 357.69L158.506 354.954V348.618L157.118 346.829C156.856 346.829 156.856 345.672 156.856 345.524L156.256 344.388L149.578 340.01L141.512 338.053L138.586 337.548L138.061 334.79L138.324 333.043L132.847 329.465L129.358 324.94L124.106 312.48L120.129 307.766L118.704 302.083L120.992 298.652L125.044 297.368H128.195L132.847 299.641L139.524 301.893L163.196 307.892L171.299 310.502V312.943L178.764 315.364L188.33 317.174H208.288L206.862 319.279L205.999 320.415L213.464 327.213L230.796 337.4L254.092 347.987L275.625 354.448L298.396 363.351L307.812 367.835L317.641 375.285L318.091 378.4L320.305 381.62L326.344 384.041L331.821 385.262L335.198 385.009L341.763 381.221L342.663 378.106L347.24 373.665L349.416 363.499L350.954 361.626L354.03 360.784H356.956L357.143 362.025L354.968 363.351L351.629 367.982L351.104 374.717L349.941 377.032L336.661 389.871L333.847 396.227L332.422 402.878L333.847 410.308L335.723 414.644L350.729 432.386L356.993 437.922L364.459 443.078L365.884 444.825V446.046L364.909 447.562L349.716 459.306L333.547 469.198L323.381 471.766L319.329 473.955L317.153 476.396L300.085 487.088L295.958 491.108L292.094 498.559L292.357 501.274L295.245 503L310.438 502.747L321.505 499.527L322.518 498.159H324.694L328.033 497.338L331.184 495.697L332.872 489.214L331.896 487.867L331.446 486.52L333.134 486.794L335.01 487.088L336.998 486.288L340.112 485.173L347.577 479.469L349.716 476.501L350.203 474.081L352.867 472.966L359.882 470.692L362.47 467.704L378.451 459.053L394.357 453.602L396.271 452.55L397.021 451.434L398.709 450.213L397.546 448.593L396.233 442.847L394.995 441.226L385.692 433.186L385.242 427.482L388.843 420.579L391.544 418.159L394.395 417.211L414.427 408.287L432.059 397.301L443.351 385.156L445.789 380.526L446.952 372.97L448.903 371.897L451.079 371.602L452.992 372.297L454.68 374.549L455.918 380.652L454.943 392.439L456.368 397.701L458.094 399.048L459.519 398.942L460.232 397.974L459.257 395.806V392.123L461.245 389.05L463.121 381.452L464.359 380H465.822L466.985 380.652L469.161 385.683L467.285 394.859L458.769 404.92L456.368 409.108V414.665L458.094 417.527H461.245L462.858 416.264L461.958 414.917L461.245 412.497L479.289 396.269L482.891 385.304V379.095L480.715 374.759L476.401 371.392L475.876 369.771L477.826 369.245L480.227 369.897L487.28 376.001L489.906 386.609L492.307 390.839L492.569 390.944L495.908 395.133L498.084 395.575L499.059 394.48L498.797 393.807L497.146 390.713V382.989L498.609 375.285L498.084 373.117L490.881 365.667L492.044 364.446L496.621 363.92L509.638 360.279L515.678 357.29L523.406 351.46L531.396 341.989L532.822 327.929L525.619 301.283L528.508 292.212L532.559 287.224L538.374 282.088L540.55 278.826L541 277.205L539.124 275.732V275.732ZM211.101 177.799L209.225 178.851L206.524 179.693L202.923 180.135L201.685 179.693L201.235 178.262L202.285 176.241L204.836 174.242L206.937 173.653L208.85 173.758L211.139 174.831L212.189 175.778L211.101 177.799V177.799ZM220.555 176.452L219.879 176.641L218.604 176.683L217.516 176.389L216.691 175.841L216.803 175.168L217.779 174.284L218.566 173.989H219.617L220.555 174.116L220.892 174.663L221.005 175.61L220.555 176.452V176.452ZM232.184 182.471L231.209 182.745H229.971L229.258 182.513L228.883 181.924L228.995 181.208L229.746 180.766L230.646 180.745L231.621 180.893L232.071 181.293L232.372 181.945L232.184 182.471V182.471ZM254.505 163.529L253.004 163.76L251.166 164.013L249.14 164.96L244.601 166.496L230.796 168.159L228.92 168.033L231.921 166.602L248.353 162.287L250.753 161.635L252.592 161.487L254.092 161.677L255.293 162.75L254.505 163.529V163.529ZM85.9541 315.743L84.0034 315.49L83.028 314.417L84.9787 313.869L86.6669 313.975L87.117 314.943L85.9541 315.743ZM111.314 258.978L108.162 265.082L105.011 267.797L103.323 268.049L102.723 267.334V265.903L104.298 260.262L107.075 257.589L108.5 256.642L110.601 256.284L111.389 256.958L111.314 258.978V258.978ZM125.231 248.202L122.08 248.875L119.079 249.044L117.241 248.644L116.791 247.907L117.316 246.918L118.891 246.308L122.155 246.076L123.843 245.992L125.006 246.181L126.057 246.729L126.132 247.339L125.231 248.202V248.202ZM150.816 267.565L150.141 267.607L148.603 267.06L146.352 266.366L144.439 265.482L142.675 264.492L141.888 263.945L141.7 263.145L142.075 262.725L142.75 262.767L143.876 262.872L145.114 263.503L146.577 264.219L148.865 264.998L150.253 265.924L151.079 266.618L151.154 267.229L150.816 267.565V267.565ZM107.825 286.845L106.662 287.771L105.499 288.023L104.711 287.644L104.749 286.34L106.737 284.424L107.337 283.877L108.313 283.624L109.25 283.961V285.056L108.65 285.834L107.825 286.845V286.845ZM116.003 320.962L115.59 321.299H115.14L114.315 320.878L113.64 320.184L112.589 318.9L111.089 317.195L108.8 312.059L109.4 306.313L109.813 305.977H110.526L111.276 306.355L111.989 308.081L112.064 309.849L116.378 319.973L116.003 320.962V320.962ZM145.226 352.217L146.014 352.112L147.89 352.344L148.753 352.849L148.94 353.459L148.753 354.196L147.627 354.659L146.239 354.512L145.264 354.006L144.889 352.849L145.226 352.217V352.217ZM164.096 302.756L162.145 302.82L159.594 302.588L157.831 302.146L145.076 297.474L143.501 296.821L145.602 296.779L147.89 297.242L159.594 299.81L162.595 300.589L164.171 301.388L164.434 302.125L164.096 302.756V302.756ZM185.929 271.08L180.752 279.562L176.476 282.551L174.337 283.477L172.049 283.94L170.736 283.435L170.623 282.467L172.424 281.372L176.738 276.616L179.477 270.996L182.028 268.323L183.753 266.955L185.179 266.745L186.492 267.039L186.867 267.923L185.929 271.08V271.08ZM290.894 185.186L293.069 183.65L295.545 182.345L297.759 181.503L299.409 181.398L300.535 181.819V182.955L299.934 184.218L294.495 186.576L291.494 187.018L290.031 186.744L289.881 186.07L290.894 185.186V185.186ZM282.115 156.709L284.216 156.31L285.679 155.931L287.48 156.289L288.08 157.025L286.73 157.909L284.854 158.33L282.528 158.393L281.665 157.509L282.115 156.709ZM263.921 166.223L263.096 164.918L264.334 163.508L267.072 162.203L271.461 162.098L274.65 162.434L277.163 163.381L278.401 165.044L279.452 166.812L279.264 168.328L276.526 168.938H273.562L266.885 167.17L263.921 166.223V166.223ZM270.936 185.544H267.597L266.997 184.913L267.822 184.26L268.835 183.924L279.377 179.925L281.778 179.083H282.64L282.753 180.072L281.14 180.788L280.39 182.282L278.326 184.05L270.936 185.544V185.544ZM231.096 252.18L230.646 251.78L230.758 250.791L231.921 250.054L244.601 247.592L258.406 247.002L262.721 247.507L266.772 248.665L269.961 250.433L270.148 251.422L269.811 252.117L268.423 252.264L266.359 252.117L263.171 251.612L260.17 251.106L240.55 251.401L237.436 251.843L234.435 252.222L232.484 252.306L231.096 252.18V252.18ZM285.379 351.86L252.592 339.273L235.485 330.434L233.572 328.771L232.859 326.792L232.972 324.961L234.21 324.267L236.386 324.33L243.438 327.445L258.669 337.106L285.604 350.597L286.429 351.355L287.03 351.902L285.379 351.86V351.86ZM288.38 267.902L286.992 268.344L283.653 268.365L281.44 268.071L280.202 267.144L279.114 266.429V265.229L280.727 264.05L283.203 262.956L285.567 262.767L287.742 263.103L288.38 263.756L288.643 265.208L288.98 266.745L288.38 267.902V267.902ZM294.983 207.391L290.518 214.737L281.815 223.324L274.5 229.091L268.948 232.353L265.084 233.195L263.846 233.153L263.621 232.606L264.821 231.069L283.016 211.98L288.83 206.739L291.831 205.139L294.12 204.908L295.095 205.813L294.983 207.391V207.391ZM308.375 187.775L307.662 188.764L305.111 190.448L298.021 192.216L294.382 192.258H292.094L291.306 191.669L292.169 190.827L294.195 190.322L301.773 187.965L303.686 187.207L306.574 186.428L308.375 186.66V187.775V187.775ZM327.545 249.717L326.232 249.928L324.544 249.865L323.418 249.233L323.681 248.707L324.806 248.265L326.494 248.202L327.957 248.854L327.995 249.402L327.545 249.717V249.717ZM329.533 246.139H327.545L326.532 245.803V244.982L326.982 244.434L328.033 244.245H329.421L330.734 244.729L330.846 245.297L329.533 246.139V246.139ZM333.134 240.583L331.821 240.962L330.433 241.067L329.008 240.877L328.558 240.33V239.678L329.721 239.215L331.184 239.067H332.572L333.397 239.467L333.585 240.099L333.134 240.583ZM334.973 235.91L333.209 236.205L331.221 236.163L330.171 235.763L330.096 235.321L330.433 234.669L332.009 234.269L333.697 234.1L335.16 234.521L335.685 235.279L334.973 235.91V235.91ZM339.212 229.386L338.236 230.122L337.336 230.775L335.498 230.985H333.66L332.084 230.543L331.934 229.849L333.059 229.196L333.922 228.649L335.16 228.396L337.186 228.06H338.762L339.474 228.544L339.212 229.386V229.386ZM341.838 223.913L340.975 224.671L339.474 224.818L337.899 225.05L335.948 225.008L335.085 224.461L335.198 223.661L335.873 223.114L337.186 222.608L339.212 222.44L341.05 222.672L341.838 223.282V223.913V223.913ZM344.614 219.872L342.55 220.335L340.975 220.651H339.024L338.236 220.567L337.261 220.377L336.736 219.83L336.998 219.136L338.311 218.483L339.437 218.146L340.675 217.852L342.438 217.81L344.126 218.146L344.839 218.925L344.614 219.872V219.872ZM344.839 213.6L344.126 214.253L342.888 214.821L341.05 215.2L338.874 215.326L337.111 215.158L336.661 214.589L336.923 214.126L337.636 213.811L340.787 212.906L342.288 212.716L344.126 212.821L344.839 213.2V213.6V213.6ZM339.887 198.72L340.487 198.488L340.75 197.836L340.975 197.31L341.5 196.931L342.475 196.91L343.638 197.099L344.689 197.436L344.801 198.13L344.689 199.267L343.113 200.025L341.125 200.593L340.262 200.53L339.399 200.34L338.536 199.73L338.424 199.078L338.762 198.699H339.887V198.72ZM338.762 194.005V193.479L339.624 192.974L340.975 192.7L342.625 192.658L343.601 192.827L343.863 193.29L343.338 193.795L342.475 194.321L341.125 194.489H339.662L338.762 194.005V194.005ZM338.837 208.886L340 208.465L341.388 208.275L342.776 208.212L343.751 208.254L344.126 208.591V209.117L343.676 209.728L342.776 210.317L340.45 210.864L339.324 210.801L338.274 210.612L338.011 210.001L338.199 209.307L338.837 208.886V208.886ZM344.689 204.36L344.389 204.845L342.963 205.392L340.975 205.813L339.887 205.665L338.837 205.308L338.612 204.739L338.724 204.003L339.512 203.561L340.637 203.119L342.25 202.929L343.638 202.908L344.576 203.056L344.876 203.561L344.689 204.36V204.36ZM345.252 188.828L345.064 189.459L344.314 190.027L343.113 190.259L342.025 190.406L341.05 190.49L339.737 190.406L339.399 189.985L339.737 189.396L340.525 188.996L341.35 188.722L342.776 188.175L344.314 188.217L345.252 188.828V188.828ZM343.188 183.439L343.976 183.692L344.089 184.323L344.051 184.892L342.776 185.523L341.613 185.776L340.862 185.713L340.262 185.544V184.934L340.337 184.323L341.2 183.818L341.988 183.545L343.188 183.439V183.439ZM341.688 180.388L341.388 181.061L340.525 181.398L339.737 181.672L338.687 181.756L337.824 181.44L337.636 180.935L338.049 180.493L338.837 179.904L339.624 179.693L340.675 179.651L341.5 179.946L341.688 180.388V180.388ZM330.959 168.538L332.872 168.475L335.535 167.886L337.974 167.57L340 167.486L341.05 168.033L339.624 169.254L338.161 169.485L335.723 169.948L332.609 170.937L329.608 171.821L326.119 172.642L324.956 172.705L323.981 172.537L324.094 171.716L323.568 170.937V169.548L324.694 167.97L326.269 167.023L327.245 166.286L328.295 165.57H329.871L330.996 166.181L330.696 167.717L330.959 168.538V168.538ZM329.833 153.91L330.546 154.184L330.321 154.563L329.27 155.257L327.807 155.341L326.119 155.194L325.144 154.942L324.394 154.457L325.256 154.058L326.494 153.763L328.37 153.721L329.833 153.91V153.91ZM320.83 148.206L324.094 148.017L325.857 148.354L327.245 148.775L327.32 149.427L326.119 149.743L324.319 149.785L322.518 149.743L321.167 149.574L319.967 149.09L320.83 148.206V148.206ZM346.152 338.937L344.576 339.736L343.113 340.662L341.688 342.346L341.237 343.525L340.262 343.967L338.386 343.82L337.486 343.209L338.874 338.179L339.399 336.642L340.637 334.685L341.538 334.117L342.926 333.948H344.764L345.552 334.369L346.94 335.527L347.202 337.695L346.152 338.937ZM341.05 309.955L329.533 303.598L322.968 298.968L317.191 293.706L312.614 287.202L310.701 282.719L311.601 280.152L314.19 279.731L316.891 280.425L322.668 291.117L338.649 304.651L349.228 312.354L341.05 309.955V309.955ZM348.028 394.228L347.127 395.617L344.089 400.331L343.713 401.068L343.263 401.531H342.025L341.05 399.868L340.975 397.995L343.338 391.913L348.44 388.04L350.616 387.893L351.216 388.987L348.028 394.228V394.228ZM359.432 429.777L358.982 429.819L358.156 429.587L356.581 428.282L354.217 426.114L353.092 424.704L352.417 422.726V420.874L352.529 419.779L353.017 419.442H354.067L355.155 419.695L356.618 420.663L357.669 422.305L358.381 424.494L358.456 426.262L358.494 426.872L359.094 427.735L359.694 429.419L359.432 429.777V429.777ZM311.039 493.276L310.063 494.35L308.9 495.339L306.987 496.033L305.149 496.265H304.399L303.573 495.886L303.311 495.107L303.648 494.16L304.624 493.045L307.287 491.55L309.313 490.856L310.776 490.814L311.489 491.15L311.676 491.929L311.039 493.276V493.276ZM329.008 477.028L328.033 477.806L326.795 478.206L325.294 478.522L324.169 478.333L323.493 477.68L323.643 477.007L324.731 476.249L326.982 475.491L328.595 475.323L329.383 475.596L329.571 476.249L329.008 477.028V477.028ZM369.073 454.633L362.32 459.558L345.552 468.588L343.638 469.282L342.4 469.24L341.8 468.714L342.063 467.788L363.896 454.865L365.584 453.834L368.135 452.908L369.035 453.034L369.823 453.581L369.073 454.633V454.633ZM385.767 447.393L386.892 447.183L388.318 447.204L388.993 447.393L389.068 447.814L388.468 448.319L387.155 448.972L385.992 449.708H385.204L384.304 449.414L384.116 448.782L384.491 448.172L385.767 447.393ZM434.047 373.475L433.785 374.696L433.109 375.832L432.697 376.864L431.384 377.306L430.146 377.116L429.471 376.443L429.058 374.149L426.319 372.002L426.057 370.255L427.632 369.139L429.246 368.845L430.821 368.908L432.134 369.56L433.635 370.634L434.047 371.855V373.475V373.475ZM515.528 331.507L515.415 333.233L510.501 343.062L504.199 348.787L493.395 355.185L490.431 355.606L488.855 355.185L488.593 354.006L489.831 352.428L504.161 340.305L507.913 334.727L509.601 324.646L508.1 315.469L507.763 313.743L509.451 312.775L510.539 313.112L511.401 314.606L515.415 324.582V331.507H515.528Z" fill="black"/>
</svg>
