<?xml version="1.0" encoding="UTF-8" standalone="no"?>
<svg
   xmlns:dc="http://purl.org/dc/elements/1.1/"
   xmlns:cc="http://creativecommons.org/ns#"
   xmlns:rdf="http://www.w3.org/1999/02/22-rdf-syntax-ns#"
   xmlns:svg="http://www.w3.org/2000/svg"
   xmlns="http://www.w3.org/2000/svg"
   xmlns:xlink="http://www.w3.org/1999/xlink"
   xmlns:sodipodi="http://sodipodi.sourceforge.net/DTD/sodipodi-0.dtd"
   xmlns:inkscape="http://www.inkscape.org/namespaces/inkscape"
   inkscape:version="1.1-dev (ddb55ca, 2020-02-02)"
   sodipodi:docname="logo-name-transp.svg"
   id="svg20"
   version="1.1"
   viewBox="0 0 192.744 192.744"
   height="2500"
   width="2500">
  <defs
     id="defs24" />
  <sodipodi:namedview
     inkscape:current-layer="svg20"
     inkscape:window-maximized="0"
     inkscape:window-y="166"
     inkscape:window-x="2295"
     inkscape:cy="1573.3083"
     inkscape:cx="1000"
     inkscape:zoom="0.266"
     showgrid="false"
     id="namedview22"
     inkscape:window-height="853"
     inkscape:window-width="1308"
     inkscape:pageshadow="2"
     inkscape:pageopacity="0"
     guidetolerance="10"
     gridtolerance="10"
     objecttolerance="10"
     borderopacity="1"
     bordercolor="#666666"
     pagecolor="#ffffff" />
  <g
     id="g16"
     clip-rule="evenodd"
     fill-rule="evenodd">
    <path
       id="path10"
       d="M0 0h192.744v192.744H0V0z"
       fill="#fff" />
    <path
       id="path12"
       d="M2.792 116.203v-3.904h2.169c1.084 0 3.254-.217 3.254-2.82V86.053c0-1.41-.109-4.772-2.82-4.772H2.901l2.82-4.989H172.57v4.989H19.061c-1.41 0-3.254.325-3.254 3.145v7.375c.326.867 1.627 1.192 2.278 1.192s2.928-.108 2.928-3.687h3.254v12.039h-3.254c0-1.085-1.198-2.902-2.819-3.037-1.302-.108-2.387.325-2.387 2.061v9.11c0 .977 1.193 2.82 4.013 2.82h1.953v3.904H2.792z" />
    <path
       id="path14"
       d="M99.08 86.92c0 .868 1.084 1.735 1.734 1.952.76-.542 4.773-2.819 7.918-2.819s4.771 1.626 4.771 4.121v11.93h-7.592v-9.218c0-1.193-.324-2.061-1.41-2.169-1.084-.108-3.904 2.169-4.662 3.254v16.485c0 1.519 1.518 2.603 2.82 2.603v3.146H89.428v-3.254c1.301 0 2.711-.434 2.82-2.386V92.234c0-.542-.868-2.061-2.82-2.061V86.92h9.652zM189.879 86.92h-13.23v3.254c1.951 0 2.818 1.518 2.818 2.061v18.329c-.107 1.952-1.518 2.386-2.818 2.386v3.254h13.23v-3.146c-1.301 0-2.82-1.084-2.82-2.603V92.451c0-1.301 1.41-2.277 2.82-2.277V86.92zM69.797 86.92c0 .868 1.084 1.735 1.735 1.952.759-.542 4.772-2.819 7.917-2.819 3.145 0 4.772 1.626 4.772 4.121v11.93H76.63v-9.218c0-1.193-.326-2.061-1.41-2.169-1.085-.108-3.905 2.169-4.664 3.254v16.485c0 1.519 1.519 2.603 2.82 2.603v3.146H60.145v-3.254c1.301 0 2.711-.434 2.82-2.386V92.234c0-.542-.868-2.061-2.82-2.061V86.92h9.652zM157.775 86.92c0 .868 1.086 1.735 1.736 1.952.76-.542 4.771-2.819 7.918-2.819 3.145 0 4.771 1.626 4.771 4.121v11.93h-7.592v-9.218c0-1.193-.326-2.061-1.41-2.169s-3.904 2.169-4.664 3.254v16.485c0 1.519 1.518 2.603 2.82 2.603v3.146h-13.232v-3.254c1.303 0 2.713-.434 2.82-2.386V92.234c0-.542-.867-2.061-2.82-2.061V86.92h9.653zM54.418 107.093h-7.592v2.929c0 1.192-.217 3.688-3.796 3.688s-4.663-2.387-4.663-4.122v-6.182c0-.542.434-1.302 1.193-1.302h14.858v-7.917c0-3.579-.759-4.664-2.278-6.182-1.518-1.519-6.833-1.952-9.219-1.952-6.073 0-8.026.867-9.761 2.277-1.735 1.41-2.386 4.338-2.386 6.507v12.255c0 3.253.651 5.531 2.711 7.592s8.351 2.061 9.653 2.061c1.301 0 5.639.108 8.785-2.169s2.495-7.483 2.495-7.483zM38.367 93.645c0-1.735.542-4.338 4.338-4.338s4.121 2.82 4.121 4.338v3.904c0 .65-.542 1.301-1.301 1.301h-5.857c-.65 0-1.301-.542-1.301-1.192v-4.013zM141.4 110.455V94.187c0-2.495-.109-5.097-2.713-6.941-2.602-1.844-6.832-1.735-8.459-1.735s-7.049 0-9.545 2.82c-2.494 2.82-2.061 5.531-2.061 6.615h7.105s.486-3.687 1.463-4.663c.982-.982 3.58-2.061 5.586-.326.738.64 1.029 1.464 1.029 2.386v4.663c0 .435-.434 1.085-.975 1.085 0 0-9.871.217-11.605 1.519-1.734 1.301-3.254 2.169-3.254 6.941 0 4.771 1.193 6.615 2.604 7.592 1.41.976 2.061 2.061 8.459 2.061h15.184v-3.146c-1.3 0-2.818-1.084-2.818-2.603zm-7.593 1.844c0 .271-.434.65-.758.65h-3.742c-2.658 0-3.416-2.277-3.416-3.688v-4.176c0-4.066 4.229-3.958 5.91-3.958s2.006 1.409 2.006 2.331v8.841zM182.766 81.227c3.797 0 6.873-1.154 6.873-2.578 0-1.423-3.076-2.578-6.873-2.578s-6.875 1.154-6.875 2.578c0 1.423 3.078 2.578 6.875 2.578z" />
  </g>
  <metadata
     id="metadata18">
    <rdf:RDF>
      <rdf:Description
         dc:language="en"
         dc:format="image/svg+xml"
         dc:date="2017-07-12"
         dc:publisher="Iconscout"
         dc:description="ferrari-2"
         dc:title="ferrari-2"
         about="https://iconscout.com/legal#licenses">
        <dc:creator>
          <rdf:Bag>
            <rdf:li>Icon Mafia</rdf:li>
          </rdf:Bag>
        </dc:creator>
      </rdf:Description>
      <cc:Work
         rdf:about="">
        <dc:format>image/svg+xml</dc:format>
        <dc:type
           rdf:resource="http://purl.org/dc/dcmitype/StillImage" />
        <dc:title></dc:title>
      </cc:Work>
    </rdf:RDF>
  </metadata>
  <path
     transform="scale(0.0770976)"
     inkscape:connector-curvature="0"
     id="path26"
     d="m 37.218045,1481.5789 v -22.5563 h 18.917739 c 24.638927,0 44.024026,-8.2427 48.775346,-20.7396 4.99938,-13.1494 4.96365,-337.4703 -0.0392,-355.4795 -5.799509,-20.8771 -17.187411,-29.1747 -41.88738,-30.5206 l -21.199614,-1.1551 16.850913,-29.1353 16.850914,-29.13536 H 1155.9765 2236.4662 v 30.05456 30.0546 l -1007.4145,0.9605 -1007.41449,0.9604 -8.56297,8.553 c -8.10178,8.0924 -8.62694,11.868 -9.75077,70.1019 -1.16778,60.5106 -1.0427,61.6505 7.41543,67.5748 4.73179,3.3143 15.91651,6.026 24.85494,6.026 20.48419,0 33.50242,-11.8202 36.98168,-33.5783 l 2.44559,-15.2939 h 18.31651 18.31652 v 77.0676 77.0677 h -18.72537 c -16.84431,0 -18.96261,-0.9452 -21.08703,-9.4096 -3.91926,-15.6156 -22.2433,-28.1844 -41.08994,-28.1844 -26.61577,0 -28.12022,4.5548 -28.12022,85.1345 0,67.9582 0.0656,68.502 9.64013,79.8806 10.60227,12.6001 28.79802,19.1423 53.32979,19.1745 l 15.97745,0.021 v 22.5563 22.5564 H 159.3985 37.218045 Z"
     style="fill:none;stroke-width:3.7594" />
  <path
     transform="scale(0.0770976)"
     inkscape:connector-curvature="0"
     id="path28"
     d="m 37.218045,1481.5789 v -22.5563 h 18.917739 c 24.638927,0 44.024026,-8.2427 48.775346,-20.7396 4.99938,-13.1494 4.96365,-337.4703 -0.0392,-355.4795 -5.799509,-20.8771 -17.187411,-29.1747 -41.88738,-30.5206 l -21.199614,-1.1551 16.850913,-29.1353 16.850914,-29.13536 H 1155.9765 2236.4662 v 30.05456 30.0546 l -1007.4145,0.9605 -1007.41449,0.9604 -8.56297,8.553 c -8.10178,8.0924 -8.62694,11.868 -9.75077,70.1019 -1.16778,60.5106 -1.0427,61.6505 7.41543,67.5748 4.73179,3.3143 15.91651,6.026 24.85494,6.026 20.48419,0 33.50242,-11.8202 36.98168,-33.5783 l 2.44559,-15.2939 h 18.31651 18.31652 v 77.0676 77.0677 h -18.72537 c -16.84431,0 -18.96261,-0.9452 -21.08703,-9.4096 -3.91926,-15.6156 -22.2433,-28.1844 -41.08994,-28.1844 -26.61577,0 -28.12022,4.5548 -28.12022,85.1345 0,67.9582 0.0656,68.502 9.64013,79.8806 10.60227,12.6001 28.79802,19.1423 53.32979,19.1745 l 15.97745,0.021 v 22.5563 22.5564 H 159.3985 37.218045 Z"
     style="fill:#ffffff;stroke-width:3.7594" />
  <path
     transform="scale(0.0770976)"
     inkscape:connector-curvature="0"
     id="path30"
     d="m 501.50376,1509.452 c -47.70847,-10.9354 -54.50496,-13.8675 -69.26717,-29.8826 -27.83637,-30.1989 -28.07423,-31.4618 -29.5466,-156.877 -1.57027,-133.754 0.22283,-144.4517 28.85929,-172.1766 25.28757,-24.4826 50.33141,-31.0695 118.82666,-31.2534 37.75431,-0.1013 61.13288,1.7893 82.70677,6.6886 26.54819,6.0289 31.92279,8.7458 45.82999,23.1678 8.66515,8.9859 17.53729,22.7568 19.71588,30.6021 2.17859,7.8452 3.9705,43.4464 3.98203,79.1137 l 0.021,64.8496 H 603.7594 c -71.88805,0 -100.1034,1.2312 -103.38346,4.5113 -7.46858,7.4686 -6.05908,101.9929 1.76679,118.4847 11.38557,23.9933 44.47473,35.9843 75.9276,27.5149 22.6967,-6.1116 30.54408,-20.3843 30.56223,-55.5861 l 0.0141,-27.2556 h 46.59026 c 53.30592,0 52.66416,-0.4219 47.51182,31.2352 -6.88375,42.2954 -23.24758,62.6374 -62.77892,78.0406 -18.5854,7.2418 -30.22709,8.6955 -76.43595,9.5446 -29.9812,0.5509 -57.89473,0.2259 -62.03007,-0.7218 z m 102.63158,-231.6325 c 2.93034,-2.9303 4.51128,-18.2112 4.51128,-43.6047 0,-62.8577 -12.17037,-78.0167 -60.44551,-75.2889 -28.34775,1.6018 -38.4622,7.6768 -47.21621,28.3594 -6.57019,15.523 -7.03154,84.1117 -0.60896,90.5342 6.25049,6.2505 97.50891,6.2505 103.7594,0 z"
     style="fill:#ffffff;stroke-width:3.7594" />
  <path
     transform="scale(0.0770976)"
     inkscape:connector-curvature="0"
     id="path32"
     d="m 781.57895,1485.3383 c 0,-13.9316 1.41382,-18.7969 5.4622,-18.7969 10.40607,0 23.80301,-8.39 27.95783,-17.5088 2.79217,-6.1281 4.17395,-50.6246 4.17395,-134.4111 v -125.2503 l -9.91114,-9.9112 c -5.45113,-5.4511 -13.90977,-9.9111 -18.79699,-9.9111 -8.26446,0 -8.88585,-1.4459 -8.88585,-20.6767 v -20.6767 h 60.0181 c 56.17054,0 60.27607,0.482 64.04205,7.5188 2.21317,4.1353 7.8863,10.0495 12.60696,13.1426 7.94138,5.2034 10.56583,4.647 35.10608,-7.4426 56.92146,-28.042 95.93536,-30.4437 121.03796,-7.4512 l 13.5798,12.4384 1.133,88.6413 1.133,88.6414 h -47.1856 -47.18564 v -65.482 c 0,-36.0151 -1.07659,-68.2875 -2.39242,-71.7165 -1.31583,-3.4291 -6.53287,-7.8088 -11.59342,-9.7328 -11.74899,-4.467 -28.56114,3.1977 -51.71109,23.5751 l -17.00984,14.9727 v 114.6313 114.6313 l 10.98902,10.989 c 6.04395,6.044 14.5026,10.9891 18.79699,10.9891 6.86331,0 7.80798,2.2742 7.80798,18.7969 v 18.797 h -84.58647 -84.58646 z"
     style="fill:#ffffff;stroke-width:3.7594" />
  <path
     transform="scale(0.0770976)"
     inkscape:connector-curvature="0"
     id="path34"
     d="m 1161.2782,1485.3383 c 0,-13.9316 1.4138,-18.7969 5.4622,-18.7969 10.4061,0 23.803,-8.39 27.9578,-17.5088 2.7922,-6.1281 4.174,-50.6246 4.174,-134.4111 v -125.2503 l -9.9112,-9.9112 c -5.4511,-5.4511 -13.9097,-9.9111 -18.797,-9.9111 -8.2644,0 -8.8858,-1.4459 -8.8858,-20.6767 v -20.6767 h 61.5916 c 57.3284,0 61.7208,0.4939 63.4577,7.1359 1.0263,3.9248 6.0903,9.9038 11.2533,13.2867 8.9971,5.8951 10.4819,5.6013 35.731,-7.0703 56.0916,-28.1504 95.6147,-30.6324 120.7775,-7.5847 l 13.5799,12.4384 1.133,88.6413 1.1329,88.6414 h -47.1856 -47.1856 v -65.482 c 0,-36.0151 -1.0766,-68.2875 -2.3924,-71.7165 -1.3158,-3.4291 -6.5329,-7.8088 -11.5934,-9.7328 -11.749,-4.467 -28.5612,3.1977 -51.7111,23.5751 l -17.0099,14.9727 v 114.6313 114.6313 l 10.9891,10.989 c 6.0439,6.044 14.5026,10.9891 18.7969,10.9891 6.8634,0 7.808,2.2742 7.808,18.7969 v 18.797 h -84.5864 -84.5865 z"
     style="fill:#ffffff;stroke-width:3.7594" />
  <path
     transform="scale(0.0770976)"
     inkscape:connector-curvature="0"
     id="path36"
     d="m 1604.6961,1499.0138 c -24.9168,-6.72 -50.8148,-26.7965 -60.8579,-47.1779 -7.5064,-15.2333 -8.4999,-22.9617 -8.4999,-66.1216 0,-44.1178 0.8213,-50.1928 8.4423,-62.4473 19.5696,-31.4679 50.2893,-42.0139 136.2946,-46.7897 25.8459,-1.4352 49.1071,-4.2959 51.6917,-6.3571 3.2688,-2.6068 4.6993,-16.8823 4.6993,-46.8963 v -43.1487 l -12.782,-12.782 c -11.3565,-11.3565 -15.0249,-12.7804 -32.8947,-12.7679 -21.7656,0.015 -40.9998,8.8863 -48.1223,22.1947 -2.2292,4.1655 -6.2746,17.3669 -8.9896,29.3366 l -4.9365,21.7629 -43.8818,1.0592 -43.8819,1.0592 0.083,-17.9765 c 0.1486,-32.3453 22.901,-68.5355 52.549,-83.585 22.4986,-11.4203 52.8283,-16.5686 97.7444,-16.5916 52.9564,-0.027 80.9594,5.7253 104.024,21.3687 32.8208,22.2605 32.9168,22.7401 35.1119,175.4931 1.0549,73.4023 3.3116,136.3177 5.0149,139.8121 3.819,7.8345 18.9904,18.0827 26.7695,18.0827 4.4194,0 5.7714,4.4033 5.7714,18.7969 v 18.797 l -123.1203,-0.2537 c -84.7407,-0.1748 -128.4534,-1.6921 -140.2287,-4.8679 z m 130.9119,-104.5037 1.0216,-70.1516 -10.4201,-8.2472 c -9.1839,-7.2687 -13.2649,-7.9594 -34.4016,-5.8218 -26.1703,2.6467 -39.6515,8.1514 -51.2153,20.9124 -6.3566,7.0148 -7.7086,14.703 -8.8037,50.0618 -2.3052,74.4272 6.954,86.076 67.0833,84.3959 l 35.7143,-0.9979 z"
     style="fill:#ffffff;stroke-width:3.7594" />
  <path
     transform="scale(0.0770976)"
     inkscape:connector-curvature="0"
     id="path38"
     d="m 1924.4361,1485.3383 c 0,-16.4299 0.9683,-18.7969 7.6897,-18.7969 4.2293,0 11.8421,-4.1525 16.9173,-9.2277 l 9.2276,-9.2276 v -131.4769 -131.477 l -9.9055,-7.7917 c -5.448,-4.2854 -13.0608,-7.7916 -16.9173,-7.7916 -5.9929,0 -7.0118,-3.0046 -7.0118,-20.6767 v -20.6767 h 59.897 c 56.8578,0 60.0198,0.3866 62.3152,7.6189 1.33,4.1905 6.4303,10.2479 11.3341,13.4609 8.381,5.4915 10.5626,5.0368 36.369,-7.5806 53.246,-26.0333 90.2338,-29.8743 116.6513,-12.1135 18.9489,12.7395 21.2549,24.9943 21.4919,114.2158 l 0.2122,79.8872 h -46.9925 -46.9925 l -0.041,-55.4511 c -0.051,-68.6586 -2.1291,-82.4322 -13.566,-89.926 -8.026,-5.2588 -10.1559,-5.0849 -24.8413,2.0289 -8.8344,4.2795 -22.4066,13.9464 -30.1603,21.482 l -14.0978,13.7011 v 116.2922 116.2921 l 9.9475,9.219 c 5.4711,5.0704 13.0839,9.219 16.9173,9.219 5.8575,0 6.9698,2.9997 6.9698,18.7969 v 18.797 h -82.7067 -82.7068 z"
     style="fill:#ffffff;stroke-width:3.7594" />
  <path
     transform="scale(0.0770976)"
     inkscape:connector-curvature="0"
     id="path40"
     d="m 1925.9727,1488.5165 c 2.9375,-18.3701 4.7729,-21.9751 11.1878,-21.9751 2.6191,0 8.462,-3.9386 12.9842,-8.7523 8.1818,-8.7091 8.2175,-9.4179 7.2343,-143.797 l -0.988,-135.0447 -13.1579,-6.553 c -13.3703,-6.6588 -17.7494,-14.8435 -18.4223,-34.4313 l -0.3747,-10.9091 56.9159,2.1874 56.916,2.1874 10.5413,11.5412 c 13.067,14.3065 18.1787,14.3475 47.6988,0.3821 50.9686,-24.1122 82.8755,-28.2609 108.0032,-14.0432 21.5744,12.2073 23.8143,22.4509 25.1619,115.0749 l 1.1539,79.3086 h -46.0527 -46.0526 v -63.7329 c 0,-40.6998 -1.5916,-67.226 -4.4039,-73.3984 -9.0443,-19.85 -33.2994,-15.4337 -63.0997,11.4892 l -15.2032,13.7351 v 119.2079 c 0,118.8609 0.025,119.2302 8.4587,126.8219 4.6522,4.1877 11.1786,8.5665 14.503,9.7307 5.422,1.8989 10.8729,17.6549 10.8729,31.4285 0,4.2302 -15.1104,5.1691 -83.1872,5.1691 h -83.1873 z"
     style="fill:#ffffff;stroke-width:3.7594" />
  <path
     transform="scale(0.0770976)"
     inkscape:connector-curvature="0"
     id="path42"
     d="m 2292.8571,1485.3383 c 0,-13.9316 1.4139,-18.7969 5.4622,-18.7969 10.4061,0 23.8031,-8.39 27.9579,-17.5088 2.7886,-6.1203 4.1739,-50.1824 4.1739,-132.7556 v -123.5949 l -9.7327,-11.5666 c -5.9125,-7.0267 -13.2904,-11.5666 -18.7969,-11.5666 -8.4808,0 -9.0644,-1.3311 -9.0644,-20.6767 v -20.6767 h 84.5865 84.5865 v 20.6767 c 0,19.2068 -0.6291,20.6767 -8.8496,20.6767 -4.8672,0 -13.3259,4.1485 -18.797,9.219 l -9.9474,9.2189 v 128.2883 128.2882 l 10.989,10.989 c 6.044,6.044 14.5026,10.9891 18.797,10.9891 6.8633,0 7.808,2.2742 7.808,18.7969 v 18.797 h -84.5865 -84.5865 z"
     style="fill:#ffffff;stroke-width:3.7594" />
  <path
     transform="scale(0.0770976)"
     inkscape:connector-curvature="0"
     id="path44"
     d="m 2330.4734,1047.1185 c -28.7541,-6.232 -43.2554,-15.7367 -43.2554,-28.3513 0,-7.0319 4.0987,-11.0421 18.797,-18.3913 16.7811,-8.3905 23.4336,-9.39846 62.0301,-9.39846 32.5056,0 47.5498,1.66598 60.6298,6.71406 20.5949,7.9483 30.7445,17.873 27.3431,26.737 -3.6246,9.4455 -27.5736,20.2467 -54.6241,24.636 -30.2209,4.9037 -40.6346,4.618 -70.9205,-1.946 z"
     style="fill:#ffffff;stroke-width:3.7594" />
  <use
     transform="translate(-133.05008,84.948363)"
     height="100%"
     width="100%"
     y="0"
     x="0"
     xlink:href="#path44"
     inkscape:spray-origin="#path44"
     id="use206" />
  <path
     style="fill:#ffffff;stroke-width:3.7594"
     d="m 2330.4734,1047.1185 c -28.7541,-6.232 -43.2554,-15.7367 -43.2554,-28.3513 0,-7.0319 4.0987,-11.0421 18.797,-18.3913 16.7811,-8.3905 23.4336,-9.39846 62.0301,-9.39846 32.5056,0 47.5498,1.66598 60.6298,6.71406 20.5949,7.9483 30.7445,17.873 27.3431,26.737 -3.6246,9.4455 -27.5736,20.2467 -54.6241,24.636 -30.2209,4.9037 -40.6346,4.618 -70.9205,-1.946 z"
     id="path208"
     inkscape:connector-curvature="0"
     transform="scale(0.0770976)" />
  <path
     transform="scale(0.0770976)"
     inkscape:connector-curvature="0"
     id="path210"
     d="m 2330.4734,1047.1185 c -28.7541,-6.232 -43.2554,-15.7367 -43.2554,-28.3513 0,-7.0319 4.0987,-11.0421 18.797,-18.3913 16.7811,-8.3905 23.4336,-9.39846 62.0301,-9.39846 32.5056,0 47.5498,1.66598 60.6298,6.71406 20.5949,7.9483 30.7445,17.873 27.3431,26.737 -3.6246,9.4455 -27.5736,20.2467 -54.6241,24.636 -30.2209,4.9037 -40.6346,4.618 -70.9205,-1.946 z"
     style="fill:#ffffff;stroke-width:3.7594" />
</svg>
