<svg width="331" height="84" viewBox="0 0 331 84" fill="none" xmlns="http://www.w3.org/2000/svg">
<path d="M3.15746 82C2.29946 82 1.59746 81.766 1.05146 81.298C0.505461 80.752 0.232461 80.05 0.232461 79.192V3.025C0.232461 2.167 0.505461 1.465 1.05146 0.918998C1.59746 0.372996 2.29946 0.0999944 3.15746 0.0999944H12.4005C14.0385 0.0999944 15.2085 0.840994 15.9105 2.32299L38.4915 44.443L61.3065 2.32299C62.0865 0.840994 63.2565 0.0999944 64.8165 0.0999944H73.9425C74.8005 0.0999944 75.5025 0.372996 76.0485 0.918998C76.5945 1.465 76.8675 2.167 76.8675 3.025V79.192C76.8675 80.05 76.5945 80.752 76.0485 81.298C75.5025 81.766 74.8005 82 73.9425 82H64.1145C63.3345 82 62.6715 81.727 62.1255 81.181C61.5795 80.635 61.3065 79.972 61.3065 79.192V28.531L44.9265 59.77C43.9125 61.486 42.5865 62.344 40.9485 62.344H36.1515C34.5135 62.344 33.1875 61.486 32.1735 59.77L15.7935 28.531V79.192C15.7935 79.972 15.5205 80.635 14.9745 81.181C14.5065 81.727 13.8435 82 12.9855 82H3.15746ZM102.554 82C101.774 82 101.111 81.727 100.565 81.181C100.019 80.635 99.7464 79.972 99.7464 79.192V3.025C99.7464 2.167 99.9804 1.465 100.448 0.918998C100.994 0.372996 101.696 0.0999944 102.554 0.0999944H154.034C154.892 0.0999944 155.594 0.372996 156.14 0.918998C156.686 1.465 156.959 2.167 156.959 3.025V10.747C156.959 11.605 156.686 12.307 156.14 12.853C155.594 13.321 154.892 13.555 154.034 13.555H115.541V34.264H151.46C152.318 34.264 153.02 34.537 153.566 35.083C154.112 35.551 154.385 36.214 154.385 37.072V44.326C154.385 45.184 154.112 45.886 153.566 46.432C153.02 46.9 152.318 47.134 151.46 47.134H115.541V68.545H154.97C155.828 68.545 156.53 68.818 157.076 69.364C157.622 69.91 157.895 70.612 157.895 71.47V79.192C157.895 80.05 157.622 80.752 157.076 81.298C156.53 81.766 155.828 82 154.97 82H102.554ZM180.017 82C179.237 82 178.574 81.727 178.028 81.181C177.482 80.635 177.209 79.972 177.209 79.192V3.025C177.209 2.167 177.443 1.465 177.911 0.918998C178.457 0.372996 179.159 0.0999944 180.017 0.0999944H189.026C189.962 0.0999944 190.664 0.294994 191.132 0.684994C191.6 0.996994 192.029 1.426 192.419 1.972L226.115 54.388V3.025C226.115 2.167 226.349 1.465 226.817 0.918998C227.363 0.372996 228.065 0.0999944 228.923 0.0999944H238.751C239.609 0.0999944 240.311 0.372996 240.857 0.918998C241.403 1.465 241.676 2.167 241.676 3.025V79.075C241.676 79.933 241.403 80.635 240.857 81.181C240.311 81.727 239.648 82 238.868 82H229.742C228.416 82 227.285 81.376 226.349 80.128L192.77 28.882V79.192C192.77 80.05 192.497 80.752 191.951 81.298C191.405 81.766 190.703 82 189.845 82H180.017ZM297.254 83.17C286.724 83.17 278.534 80.479 272.684 75.097C266.834 69.715 263.909 61.564 263.909 50.644V3.025C263.909 2.167 264.143 1.465 264.611 0.918998C265.157 0.372996 265.859 0.0999944 266.717 0.0999944H277.364C278.222 0.0999944 278.885 0.372996 279.353 0.918998C279.899 1.465 280.172 2.167 280.172 3.025V50.644C280.172 56.884 281.654 61.603 284.618 64.801C287.582 67.921 291.794 69.481 297.254 69.481C302.714 69.481 306.887 67.921 309.773 64.801C312.737 61.603 314.219 56.884 314.219 50.644V3.025C314.219 2.167 314.492 1.465 315.038 0.918998C315.584 0.372996 316.286 0.0999944 317.144 0.0999944H327.674C328.532 0.0999944 329.195 0.372996 329.663 0.918998C330.209 1.465 330.482 2.167 330.482 3.025V50.644C330.482 61.564 327.557 69.715 321.707 75.097C315.935 80.479 307.784 83.17 297.254 83.17Z" fill="white"/>
</svg>
