<svg width="340" height="84" viewBox="0 0 340 84" fill="none" xmlns="http://www.w3.org/2000/svg">
<path d="M3.85086 82C3.07086 82 2.36886 81.727 1.74486 81.181C1.19886 80.557 0.925855 79.855 0.925855 79.075V3.025C0.925855 2.167 1.19886 1.465 1.74486 0.918998C2.36886 0.372996 3.07086 0.0999944 3.85086 0.0999944H16.4869C18.3589 0.0999944 19.7239 0.957995 20.5819 2.674L41.1739 39.529L61.7659 2.674C62.6239 0.957995 63.9889 0.0999944 65.8609 0.0999944H78.3799C79.2379 0.0999944 79.9399 0.372996 80.4859 0.918998C81.1099 1.465 81.4219 2.167 81.4219 3.025V79.075C81.4219 79.933 81.1099 80.635 80.4859 81.181C79.9399 81.727 79.2379 82 78.3799 82H64.4569C63.5989 82 62.8579 81.727 62.2339 81.181C61.6879 80.635 61.4149 79.933 61.4149 79.075V35.2L48.3109 59.653C47.2969 61.447 45.9319 62.344 44.2159 62.344H38.1319C37.1179 62.344 36.2989 62.11 35.6749 61.642C35.0509 61.174 34.5049 60.511 34.0369 59.653L20.8159 35.2V79.075C20.8159 79.855 20.5429 80.557 19.9969 81.181C19.4509 81.727 18.7489 82 17.8909 82H3.85086ZM105.421 82C104.641 82 103.939 81.727 103.315 81.181C102.769 80.557 102.496 79.855 102.496 79.075V3.025C102.496 2.167 102.769 1.465 103.315 0.918998C103.939 0.372996 104.641 0.0999944 105.421 0.0999944H160.06C160.918 0.0999944 161.62 0.372996 162.166 0.918998C162.712 1.465 162.985 2.167 162.985 3.025V14.023C162.985 14.803 162.712 15.505 162.166 16.129C161.62 16.675 160.918 16.948 160.06 16.948H122.737V32.743H157.486C158.344 32.743 159.046 33.055 159.592 33.679C160.138 34.225 160.411 34.927 160.411 35.785V45.964C160.411 46.744 160.138 47.446 159.592 48.07C159.046 48.616 158.344 48.889 157.486 48.889H122.737V65.152H160.996C161.854 65.152 162.556 65.425 163.102 65.971C163.648 66.517 163.921 67.219 163.921 68.077V79.075C163.921 79.855 163.648 80.557 163.102 81.181C162.556 81.727 161.854 82 160.996 82H105.421ZM184.826 82C184.046 82 183.344 81.727 182.72 81.181C182.174 80.557 181.901 79.855 181.901 79.075V3.025C181.901 2.167 182.174 1.465 182.72 0.918998C183.344 0.372996 184.046 0.0999944 184.826 0.0999944H197.228C199.178 0.0999944 200.504 0.840994 201.206 2.32299L229.754 47.251V3.025C229.754 2.167 230.027 1.465 230.573 0.918998C231.197 0.372996 231.899 0.0999944 232.679 0.0999944H246.719C247.577 0.0999944 248.279 0.372996 248.825 0.918998C249.371 1.465 249.644 2.167 249.644 3.025V78.958C249.644 79.816 249.371 80.557 248.825 81.181C248.279 81.727 247.577 82 246.719 82H234.2C232.484 82 231.197 81.259 230.339 79.777L201.791 36.487V79.075C201.791 79.855 201.518 80.557 200.972 81.181C200.426 81.727 199.724 82 198.866 82H184.826ZM305.073 83.17C294.075 83.17 285.456 80.479 279.216 75.097C273.054 69.715 269.973 61.603 269.973 50.761V3.025C269.973 2.167 270.246 1.465 270.792 0.918998C271.416 0.372996 272.118 0.0999944 272.898 0.0999944H287.991C288.849 0.0999944 289.551 0.372996 290.097 0.918998C290.721 1.465 291.033 2.167 291.033 3.025V50.644C291.033 55.714 292.203 59.536 294.543 62.11C296.961 64.606 300.432 65.854 304.956 65.854C309.402 65.854 312.834 64.567 315.252 61.993C317.67 59.419 318.879 55.636 318.879 50.644V3.025C318.879 2.167 319.152 1.465 319.698 0.918998C320.322 0.372996 321.024 0.0999944 321.804 0.0999944H337.014C337.872 0.0999944 338.574 0.372996 339.12 0.918998C339.666 1.465 339.939 2.167 339.939 3.025V50.761C339.939 61.603 336.819 69.715 330.579 75.097C324.417 80.479 315.915 83.17 305.073 83.17Z" fill="white"/>
</svg>
